<svg width="21" height="21" viewBox="0 0 21 21" fill="none" xmlns="http://www.w3.org/2000/svg">
<g id="bell-dot">
<path id="Vector" d="M16.8723 13.0426C17.5532 14.3192 18.234 14.8298 18.234 14.8298H2.91489C2.91489 14.8298 5.46809 13.1277 5.46809 7.17023C5.46809 4.36172 7.76596 2.06384 10.5745 2.06384C11.1702 2.06384 11.6809 2.14895 12.1915 2.31916M9.1277 18.2341C9.27015 18.4932 9.47957 18.7092 9.73408 18.8597C9.98858 19.0103 10.2788 19.0897 10.5745 19.0897C10.8702 19.0897 11.1604 19.0103 11.4149 18.8597C11.6694 18.7092 11.8789 18.4932 12.0213 18.2341M18.234 7.17023C18.234 8.58031 17.0909 9.72342 15.6809 9.72342C14.2708 9.72342 13.1277 8.58031 13.1277 7.17023C13.1277 5.76014 14.2708 4.61703 15.6809 4.61703C17.0909 4.61703 18.234 5.76014 18.234 7.17023Z" stroke="black" stroke-width="1.70213" stroke-linecap="round" stroke-linejoin="round"/>
</g>
</svg>
